<?xml version="1.0" encoding="UTF-8"?>
<!DOCTYPE svg PUBLIC "-//W3C//DTD SVG 1.1//EN" "http://www.w3.org/Graphics/SVG/1.1/DTD/svg11.dtd">
<svg xmlns="http://www.w3.org/2000/svg" version="1.1" width="512px" height="512px" style="shape-rendering:geometricPrecision; text-rendering:geometricPrecision; image-rendering:optimizeQuality; fill-rule:evenodd; clip-rule:evenodd" xmlns:xlink="http://www.w3.org/1999/xlink">
<g><path style="opacity:0.995" fill="#0087fe" d="M 232.5,-0.5 C 247.833,-0.5 263.167,-0.5 278.5,-0.5C 368.144,10.3879 435.644,54.7213 481,132.5C 497.695,163.971 507.861,197.304 511.5,232.5C 511.5,247.833 511.5,263.167 511.5,278.5C 510.505,284.404 509.505,290.404 508.5,296.5C 492.201,280.702 476.035,264.702 460,248.5C 459.827,254.348 459.327,260.015 458.5,265.5C 458.83,259.132 458.496,252.798 457.5,246.5C 449.859,242.168 442.526,237.501 435.5,232.5C 400.372,195.867 364.372,159.367 327.5,123C 326.906,122.536 326.239,122.369 325.5,122.5C 317.194,118.018 308.528,114.018 299.5,110.5C 283.679,145.614 269.012,181.28 255.5,217.5C 253.847,220.759 252.181,224.093 250.5,227.5C 229.196,207.53 208.196,187.197 187.5,166.5C 186.833,165.167 186.167,165.167 185.5,166.5C 141.528,193.155 97.5278,219.822 53.5,246.5C 52.3361,252.807 52.1694,259.141 53,265.5C 53.9947,266.066 54.828,266.733 55.5,267.5C 135.452,347.785 215.452,428.119 295.5,508.5C 289.844,509.573 284.177,510.573 278.5,511.5C 263.167,511.5 247.833,511.5 232.5,511.5C 142.856,500.612 75.3562,456.279 30,378.5C 13.3053,347.029 3.1386,313.696 -0.5,278.5C -0.5,263.167 -0.5,247.833 -0.5,232.5C 10.3875,142.857 54.7208,75.3573 132.5,30C 163.971,13.3053 197.304,3.1386 232.5,-0.5 Z"/></g>
<g><path style="opacity:1" fill="#fdf3cb" d="M 325.5,122.5 C 302.5,179.167 279.5,235.833 256.5,292.5C 255.502,267.672 255.169,242.672 255.5,217.5C 269.012,181.28 283.679,145.614 299.5,110.5C 308.528,114.018 317.194,118.018 325.5,122.5 Z"/></g>
<g><path style="opacity:1" fill="#0150c3" d="M 325.5,122.5 C 326.239,122.369 326.906,122.536 327.5,123C 364.372,159.367 400.372,195.867 435.5,232.5C 397.974,210.818 360.808,188.485 324,165.5C 323.333,178.167 323.333,190.833 324,203.5C 351.923,220.275 379.423,237.608 406.5,255.5C 379.43,272.564 352.097,289.23 324.5,305.5C 323.334,318.821 323.167,332.154 324,345.5C 368.613,318.444 413.447,291.778 458.5,265.5C 459.327,260.015 459.827,254.348 460,248.5C 476.035,264.702 492.201,280.702 508.5,296.5C 494.75,372.875 455.417,432.042 390.5,474C 361.271,492.133 329.604,503.633 295.5,508.5C 215.452,428.119 135.452,347.785 55.5,267.5C 98.8161,293.139 142.149,318.806 185.5,344.5C 185.56,345.043 185.893,345.376 186.5,345.5C 187.825,332.006 187.825,318.673 186.5,305.5C 158.528,289.18 130.861,272.347 103.5,255C 131.317,238.005 158.983,220.838 186.5,203.5C 187.495,191.345 187.829,179.011 187.5,166.5C 208.196,187.197 229.196,207.53 250.5,227.5C 228.795,281.447 206.795,335.28 184.5,389C 193.425,392.922 202.425,396.756 211.5,400.5C 226.514,364.447 241.514,328.447 256.5,292.5C 279.5,235.833 302.5,179.167 325.5,122.5 Z"/></g>
<g><path style="opacity:1" fill="#fdfdfe" d="M 185.5,166.5 C 186.495,178.655 186.829,190.989 186.5,203.5C 158.983,220.838 131.317,238.005 103.5,255C 130.861,272.347 158.528,289.18 186.5,305.5C 186.829,318.677 186.495,331.677 185.5,344.5C 142.149,318.806 98.8161,293.139 55.5,267.5C 54.828,266.733 53.9947,266.066 53,265.5C 52.1694,259.141 52.3361,252.807 53.5,246.5C 97.5278,219.822 141.528,193.155 185.5,166.5 Z"/></g>
<g><path style="opacity:1" fill="#86ace3" d="M 185.5,166.5 C 186.167,165.167 186.833,165.167 187.5,166.5C 187.829,179.011 187.495,191.345 186.5,203.5C 186.829,190.989 186.495,178.655 185.5,166.5 Z"/></g>
<g><path style="opacity:1" fill="#fcf3ca" d="M 435.5,232.5 C 442.526,237.501 449.859,242.168 457.5,246.5C 458.496,252.798 458.83,259.132 458.5,265.5C 413.447,291.778 368.613,318.444 324,345.5C 323.167,332.154 323.334,318.821 324.5,305.5C 352.097,289.23 379.43,272.564 406.5,255.5C 379.423,237.608 351.923,220.275 324,203.5C 323.333,190.833 323.333,178.167 324,165.5C 360.808,188.485 397.974,210.818 435.5,232.5 Z"/></g>
<g><path style="opacity:1" fill="#fcfdfe" d="M 255.5,217.5 C 255.169,242.672 255.502,267.672 256.5,292.5C 241.514,328.447 226.514,364.447 211.5,400.5C 202.425,396.756 193.425,392.922 184.5,389C 206.795,335.28 228.795,281.447 250.5,227.5C 252.181,224.093 253.847,220.759 255.5,217.5 Z"/></g>
<g><path style="opacity:1" fill="#85abe2" d="M 186.5,305.5 C 187.825,318.673 187.825,332.006 186.5,345.5C 185.893,345.376 185.56,345.043 185.5,344.5C 186.495,331.677 186.829,318.677 186.5,305.5 Z"/></g>
</svg>
