<?xml version="1.0" encoding="UTF-8"?>
<!DOCTYPE svg PUBLIC "-//W3C//DTD SVG 1.1//EN" "http://www.w3.org/Graphics/SVG/1.1/DTD/svg11.dtd">
<svg xmlns="http://www.w3.org/2000/svg" version="1.1" width="512px" height="512px" style="shape-rendering:geometricPrecision; text-rendering:geometricPrecision; image-rendering:optimizeQuality; fill-rule:evenodd; clip-rule:evenodd" xmlns:xlink="http://www.w3.org/1999/xlink">
<g><path style="opacity:0.993" fill="#95baf9" d="M 298.5,114.5 C 318.225,112.435 331.059,120.768 337,139.5C 338.055,146.686 337.388,153.686 335,160.5C 301.194,234.251 267.194,307.918 233,381.5C 220.276,397.74 204.776,400.907 186.5,391C 173.415,380.065 169.915,366.565 176,350.5C 210.06,276.047 244.393,201.714 279,127.5C 284.36,121.281 290.86,116.947 298.5,114.5 Z"/></g>
<g><path style="opacity:0.992" fill="#2c5ede" d="M -0.5,266.5 C -0.5,259.167 -0.5,251.833 -0.5,244.5C 1.74847,235 5.91513,226.334 12,218.5C 39.5279,190.638 67.3612,163.138 95.5,136C 113.95,126.623 129.784,129.79 143,145.5C 150.595,159.072 150.262,172.406 142,185.5C 121.333,206.167 100.667,226.833 80,247.5C 75.4243,253.39 75.7577,259.057 81,264.5C 101.333,284.833 121.667,305.167 142,325.5C 152.882,344.425 150.049,360.925 133.5,375C 119.417,382.758 105.75,382.091 92.5,373C 65.6667,346.167 38.8333,319.333 12,292.5C 5.91513,284.666 1.74847,276 -0.5,266.5 Z"/></g>
<g><path style="opacity:0.991" fill="#2c5dde" d="M 511.5,244.5 C 511.5,251.833 511.5,259.167 511.5,266.5C 509.252,276 505.085,284.666 499,292.5C 471.472,320.362 443.639,347.862 415.5,375C 397.05,384.377 381.216,381.21 368,365.5C 360.405,351.928 360.738,338.594 369,325.5C 389.667,304.833 410.333,284.167 431,263.5C 432.766,261.119 433.932,258.452 434.5,255.5C 433.932,252.548 432.766,249.881 431,247.5C 410.333,226.833 389.667,206.167 369,185.5C 358.118,166.575 360.951,150.075 377.5,136C 391.583,128.242 405.25,128.909 418.5,138C 445.333,164.833 472.167,191.667 499,218.5C 505.085,226.334 509.252,235 511.5,244.5 Z"/></g>
</svg>
