<?xml version="1.0" encoding="UTF-8"?>
<!DOCTYPE svg PUBLIC "-//W3C//DTD SVG 1.1//EN" "http://www.w3.org/Graphics/SVG/1.1/DTD/svg11.dtd">
<svg xmlns="http://www.w3.org/2000/svg" version="1.1" width="512px" height="512px" style="shape-rendering:geometricPrecision; text-rendering:geometricPrecision; image-rendering:optimizeQuality; fill-rule:evenodd; clip-rule:evenodd" xmlns:xlink="http://www.w3.org/1999/xlink">
<g><path style="opacity:0.986" fill="#010101" d="M 242.5,-0.5 C 250.833,-0.5 259.167,-0.5 267.5,-0.5C 289.877,4.35552 309.543,14.5222 326.5,30C 339.153,42.5064 350.986,55.673 362,69.5C 365.148,73.7065 365.314,78.0398 362.5,82.5C 358.741,83.9082 355.075,83.7416 351.5,82C 334.214,56.0437 311.88,35.7103 284.5,21C 272.384,15.5363 259.718,13.5363 246.5,15C 244.618,15.1981 242.952,15.6981 241.5,16.5C 229.051,19.2246 217.718,24.3913 207.5,32C 186.898,48.602 169.064,67.7686 154,89.5C 133.757,120.317 116.924,152.984 103.5,187.5C 103.833,187.833 104.167,188.167 104.5,188.5C 129.185,174.66 155.518,165.494 183.5,161C 241.305,150.867 298.638,153.034 355.5,167.5C 373.298,172.328 390.298,179.328 406.5,188.5C 406.833,188.167 407.167,187.833 407.5,187.5C 396.876,160.585 384.376,134.585 370,109.5C 368.861,105.579 369.695,102.246 372.5,99.5C 377.031,97.6745 380.864,98.6745 384,102.5C 403.073,134.315 418.073,167.982 429,203.5C 432.839,213.607 432.839,223.607 429,233.5C 425.175,241.819 420.842,249.819 416,257.5C 404.773,273.45 392.94,288.95 380.5,304C 410.589,300.259 424.589,313.425 422.5,343.5C 439.818,357.469 453.318,374.469 463,394.5C 477.623,425.986 487.123,458.986 491.5,493.5C 490.967,501.922 486.967,507.922 479.5,511.5C 330.167,511.5 180.833,511.5 31.5,511.5C 24.0333,507.922 20.0333,501.922 19.5,493.5C 21.7853,476.573 25.2853,459.907 30,443.5C 31.7006,439.125 34.8672,437.458 39.5,438.5C 42.8234,440.152 44.4901,442.819 44.5,446.5C 42.525,456.541 40.3584,466.541 38,476.5C 36.5617,482.785 35.895,489.118 36,495.5C 46.7517,496.487 57.585,496.82 68.5,496.5C 66.5449,480.349 73.5449,471.682 89.5,470.5C 89.6667,434.832 89.5,399.165 89,363.5C 74.4779,378.532 63.4779,395.865 56,415.5C 53.4093,419.048 49.9093,420.382 45.5,419.5C 42.6319,418.122 40.9652,415.788 40.5,412.5C 50.2743,385.077 66.2743,362.077 88.5,343.5C 86.4113,313.425 100.411,300.259 130.5,304C 112.666,283.836 97.1663,262.003 84,238.5C 81.5632,232.856 79.7298,227.023 78.5,221C 82.8563,197.931 90.0229,175.764 100,154.5C 116.893,116.348 138.559,81.3477 165,49.5C 177.399,35.0876 191.566,22.9209 207.5,13C 218.638,6.79321 230.304,2.29321 242.5,-0.5 Z"/></g>
<g><path style="opacity:1" fill="#12526f" d="M 362.5,82.5 C 365.833,88.1667 369.167,93.8333 372.5,99.5C 369.695,102.246 368.861,105.579 370,109.5C 384.376,134.585 396.876,160.585 407.5,187.5C 407.167,187.833 406.833,188.167 406.5,188.5C 390.298,179.328 373.298,172.328 355.5,167.5C 356.5,167.5 357.5,167.5 358.5,167.5C 339.231,117.421 310.565,73.588 272.5,36C 266.116,30.6153 259.45,25.6153 252.5,21C 249.029,18.9281 245.362,17.4281 241.5,16.5C 242.952,15.6981 244.618,15.1981 246.5,15C 259.718,13.5363 272.384,15.5363 284.5,21C 311.88,35.7103 334.214,56.0437 351.5,82C 355.075,83.7416 358.741,83.9082 362.5,82.5 Z"/></g>
<g><path style="opacity:1" fill="#1d5f8a" d="M 241.5,16.5 C 245.362,17.4281 249.029,18.9281 252.5,21C 259.45,25.6153 266.116,30.6153 272.5,36C 310.565,73.588 339.231,117.421 358.5,167.5C 357.5,167.5 356.5,167.5 355.5,167.5C 298.638,153.034 241.305,150.867 183.5,161C 155.518,165.494 129.185,174.66 104.5,188.5C 104.167,188.167 103.833,187.833 103.5,187.5C 116.924,152.984 133.757,120.317 154,89.5C 169.064,67.7686 186.898,48.602 207.5,32C 217.718,24.3913 229.051,19.2246 241.5,16.5 Z"/></g>
<g><path style="opacity:1" fill="#e6c9a6" d="M 234.5,169.5 C 252.191,169.217 269.858,169.717 287.5,171C 282.167,171.333 276.833,171.667 271.5,172C 265.343,174.486 261.676,178.986 260.5,185.5C 257.167,185.5 253.833,185.5 250.5,185.5C 249.386,178.44 245.386,173.94 238.5,172C 233.167,171.667 227.833,171.333 222.5,171C 226.688,170.824 230.688,170.324 234.5,169.5 Z"/></g>
<g><path style="opacity:1" fill="#ecceaa" d="M 171.5,178.5 C 172.675,178.281 173.675,178.614 174.5,179.5C 172.771,181.851 172.104,184.518 172.5,187.5C 168.167,187.5 163.833,187.5 159.5,187.5C 159.5,185.5 159.5,183.5 159.5,181.5C 163.761,181.102 167.761,180.102 171.5,178.5 Z"/></g>
<g><path style="opacity:1" fill="#e5c29c" d="M 336.5,178.5 C 341.4,179.975 346.4,180.975 351.5,181.5C 351.5,183.5 351.5,185.5 351.5,187.5C 347.167,187.5 342.833,187.5 338.5,187.5C 338.79,184.215 338.123,181.215 336.5,178.5 Z"/></g>
<g><path style="opacity:1" fill="#4c4c4c" d="M 187.5,186.5 C 203.5,186.5 219.5,186.5 235.5,186.5C 236.081,193.061 235.248,199.395 233,205.5C 231.581,206.46 230.081,207.293 228.5,208C 214.837,208.5 201.171,208.667 187.5,208.5C 187.5,201.167 187.5,193.833 187.5,186.5 Z"/></g>
<g><path style="opacity:1" fill="#4c4c4c" d="M 275.5,186.5 C 291.5,186.5 307.5,186.5 323.5,186.5C 323.5,193.833 323.5,201.167 323.5,208.5C 309.094,208.949 294.761,208.449 280.5,207C 277.906,205.661 276.406,203.494 276,200.5C 275.501,195.845 275.334,191.179 275.5,186.5 Z"/></g>
<g><path style="opacity:1" fill="#eac08c" d="M 140.5,187.5 C 141.833,187.5 143.167,187.5 144.5,187.5C 145.167,194.833 145.833,202.167 146.5,209.5C 140.039,210.859 135.539,208.525 133,202.5C 132.333,198.833 132.333,195.167 133,191.5C 135.633,190.248 138.133,188.914 140.5,187.5 Z"/></g>
<g><path style="opacity:1" fill="#ecc28d" d="M 366.5,187.5 C 370.313,188.16 373.979,189.326 377.5,191C 381.037,202.938 376.704,209.104 364.5,209.5C 365.813,202.24 366.479,194.907 366.5,187.5 Z"/></g>
<g><path style="opacity:1" fill="#12526f" d="M 116.5,198.5 C 119.818,218.024 131.485,226.69 151.5,224.5C 161.24,252.965 179.573,273.965 206.5,287.5C 208.796,294.295 207.463,300.128 202.5,305C 185.833,305.667 169.167,305.667 152.5,305C 129.762,281.603 110.929,255.436 96,226.5C 93.7228,222.278 94.0561,218.278 97,214.5C 102.743,208.072 109.243,202.738 116.5,198.5 Z"/></g>
<g><path style="opacity:1" fill="#12526f" d="M 393.5,198.5 C 403.784,203.118 411.451,210.452 416.5,220.5C 414.701,228.431 411.534,235.764 407,242.5C 392.405,264.509 376.238,285.342 358.5,305C 341.167,305.667 323.833,305.667 306.5,305C 301.576,300.477 300.243,294.977 302.5,288.5C 330.271,274.943 349.271,253.61 359.5,224.5C 368.577,225.765 376.91,223.931 384.5,219C 390.499,213.511 393.499,206.678 393.5,198.5 Z"/></g>
<g><path style="opacity:1" fill="#fdddb6" d="M 298.5,223.5 C 288.341,250.162 270.341,269.662 244.5,282C 243.207,282.49 241.873,282.657 240.5,282.5C 201.359,274.53 175.526,251.53 163,213.5C 162.281,209.855 161.781,206.188 161.5,202.5C 165.167,202.5 168.833,202.5 172.5,202.5C 171.078,212.16 174.745,218.994 183.5,223C 199.167,223.667 214.833,223.667 230.5,223C 241.905,220.262 248.405,213.096 250,201.5C 253.667,200.167 257.333,200.167 261,201.5C 262.494,212.662 268.661,219.829 279.5,223C 285.825,223.5 292.158,223.666 298.5,223.5 Z"/></g>
<g><path style="opacity:1" fill="#f1cda4" d="M 240.5,282.5 C 241.873,282.657 243.207,282.49 244.5,282C 270.341,269.662 288.341,250.162 298.5,223.5C 307.839,223.666 317.173,223.5 326.5,223C 335.995,219.525 339.995,212.692 338.5,202.5C 342.167,202.5 345.833,202.5 349.5,202.5C 341.92,242.586 318.587,268.753 279.5,281C 266.437,283.605 253.437,284.105 240.5,282.5 Z"/></g>
<g><path style="opacity:1" fill="#f3d4af" d="M 222.5,294.5 C 243.859,299.784 265.192,299.784 286.5,294.5C 286.15,298.054 286.816,301.388 288.5,304.5C 265.833,305.833 243.167,305.833 220.5,304.5C 222.184,301.388 222.85,298.054 222.5,294.5 Z"/></g>
<g><path style="opacity:1" fill="#cecece" d="M 357.5,320.5 C 357.709,321.922 358.209,323.255 359,324.5C 359.5,373.166 359.667,421.832 359.5,470.5C 274.5,470.5 189.5,470.5 104.5,470.5C 104.333,422.832 104.5,375.166 105,327.5C 105.786,324.417 107.619,322.251 110.5,321C 192.833,320.5 275.166,320.333 357.5,320.5 Z"/></g>
<g><path style="opacity:1" fill="#c0c2c4" d="M 357.5,320.5 C 371.837,320.333 386.171,320.5 400.5,321C 403.381,322.251 405.214,324.417 406,327.5C 406.5,375.166 406.667,422.832 406.5,470.5C 390.833,470.5 375.167,470.5 359.5,470.5C 359.667,421.832 359.5,373.166 359,324.5C 358.209,323.255 357.709,321.922 357.5,320.5 Z"/></g>
<g><path style="opacity:0.997" fill="#1d5f89" d="M 39.5,438.5 C 41.1016,432.029 43.1016,425.696 45.5,419.5C 49.9093,420.382 53.4093,419.048 56,415.5C 63.4779,395.865 74.4779,378.532 89,363.5C 89.5,399.165 89.6667,434.832 89.5,470.5C 73.5449,471.682 66.5449,480.349 68.5,496.5C 57.585,496.82 46.7517,496.487 36,495.5C 35.895,489.118 36.5617,482.785 38,476.5C 40.3584,466.541 42.525,456.541 44.5,446.5C 44.4901,442.819 42.8234,440.152 39.5,438.5 Z"/></g>
<g><path style="opacity:1" fill="#12526f" d="M 421.5,363.5 C 435.289,377.706 446.122,394.04 454,412.5C 463.837,436.682 470.837,461.682 475,487.5C 475.777,490.429 475.61,493.263 474.5,496C 463.839,496.5 453.172,496.667 442.5,496.5C 444.469,480.39 437.469,471.724 421.5,470.5C 421.5,434.833 421.5,399.167 421.5,363.5 Z"/></g>
<g><path style="opacity:1" fill="#040404" d="M 247.5,371.5 C 274.508,370.009 287.342,382.676 286,409.5C 279.914,427.305 267.414,435.138 248.5,433C 230.347,426.536 222.514,413.703 225,394.5C 228.684,382.984 236.184,375.317 247.5,371.5 Z"/></g>
<g><path style="opacity:1" fill="#fbfbfb" d="M 249.5,386.5 C 266.526,385.35 273.359,393.017 270,409.5C 264.109,418.573 256.276,420.74 246.5,416C 238.519,408.667 237.519,400.501 243.5,391.5C 245.571,389.815 247.571,388.148 249.5,386.5 Z"/></g>
<g><path style="opacity:1" fill="#9b9c9f" d="M 85.5,486.5 C 184.167,486.5 282.833,486.5 381.5,486.5C 381.5,489.5 381.5,492.5 381.5,495.5C 282.833,495.5 184.167,495.5 85.5,495.5C 83.9735,494.508 83.3068,493.008 83.5,491C 83.3068,488.992 83.9735,487.492 85.5,486.5 Z"/></g>
<g><path style="opacity:1" fill="#828386" d="M 85.5,486.5 C 198.666,485.334 311.999,485.167 425.5,486C 428.167,489.333 428.167,492.667 425.5,496C 311.999,496.833 198.666,496.666 85.5,495.5C 184.167,495.5 282.833,495.5 381.5,495.5C 381.5,492.5 381.5,489.5 381.5,486.5C 282.833,486.5 184.167,486.5 85.5,486.5 Z"/></g>
</svg>
